<?xml version="1.0" encoding="UTF-8"?>
<!DOCTYPE svg PUBLIC "-//W3C//DTD SVG 1.1//EN" "http://www.w3.org/Graphics/SVG/1.1/DTD/svg11.dtd">
<svg xmlns="http://www.w3.org/2000/svg" xmlns:xlink="http://www.w3.org/1999/xlink" version="1.1" width="232px" height="162px" viewBox="-0.5 -0.5 232 162"><defs/><g><rect x="0" y="0" width="230" height="160" fill="rgb(255, 255, 255)" stroke="rgb(0, 0, 0)" pointer-events="all"/><ellipse cx="110" cy="80" rx="70" ry="50" fill="none" stroke="none" pointer-events="all"/><path d="M 52.29 47.98 C 52.29 47.98 52.29 47.98 52.29 47.98 M 52.29 47.98 C 52.29 47.98 52.29 47.98 52.29 47.98 M 41.53 66.45 C 46.61 60.38 51.06 56.67 61.87 43.05 M 41.53 66.45 C 46.78 60.9 49.64 56.07 61.87 43.05 M 39.96 74.36 C 46.55 64.18 56.94 54.98 71.45 38.13 M 39.96 74.36 C 51.21 63.23 61.39 51.84 71.45 38.13 M 41.01 79.25 C 52.28 68 63.42 54.09 80.38 33.96 M 41.01 79.25 C 55.5 63.95 70.37 45.88 80.38 33.96 M 42.06 84.13 C 52.42 71.46 63.55 60.01 86.67 32.81 M 42.06 84.13 C 58.45 66.53 73.11 49.3 86.67 32.81 M 43.11 89.02 C 59.28 73.58 71.64 53.69 92.32 32.42 M 43.11 89.02 C 55.29 72.8 69.28 59.64 92.32 32.42 M 44.16 93.91 C 61.62 72.01 82.78 49.45 97.96 32.02 M 44.16 93.91 C 60.94 74.62 78.77 55.55 97.96 32.02 M 44.56 99.55 C 62.02 75 81.8 54.81 103.6 31.63 M 44.56 99.55 C 58.14 84.91 70.02 70.42 103.6 31.63 M 47.58 102.18 C 71.8 71.57 96.09 44.02 109.9 30.48 M 47.58 102.18 C 66.08 81.36 81.55 61.52 109.9 30.48 M 49.94 105.56 C 70.16 79.43 90.03 56.32 115.55 30.09 M 49.94 105.56 C 68.26 85.15 85.26 63.49 115.55 30.09 M 52.96 108.18 C 66.22 93.89 78.83 78.98 119.88 31.2 M 52.96 108.18 C 73.91 84.36 94.9 60.2 119.88 31.2 M 55.98 110.81 C 81.02 81.42 103.46 55.78 124.86 31.56 M 55.98 110.81 C 80.93 83.24 104.25 54.25 124.86 31.56 M 58.34 114.18 C 77.08 94.46 91.08 74.64 129.19 32.68 M 58.34 114.18 C 77.77 92.21 96.21 70.42 129.19 32.68 M 61.36 116.81 C 75.55 97.23 94.33 81.41 134.18 33.04 M 61.36 116.81 C 85.58 88.52 109.07 61.98 134.18 33.04 M 63.72 120.19 C 78.01 103.19 97.56 82.18 137.86 34.91 M 63.72 120.19 C 82.03 98.2 100.08 77.63 137.86 34.91 M 68.05 121.3 C 90.1 95.5 111.96 70.81 141.53 36.77 M 68.05 121.3 C 94.32 92.34 121.18 60.36 141.53 36.77 M 72.38 122.42 C 93.05 97.51 115.62 73.87 145.21 38.64 M 72.38 122.42 C 98.56 91.62 124.53 63.12 145.21 38.64 M 76.06 124.29 C 96.32 102.3 113 81.87 149.54 39.76 M 76.06 124.29 C 102.23 96.37 126.2 66.85 149.54 39.76 M 80.39 125.4 C 94.8 107.11 112.97 88 153.21 41.63 M 80.39 125.4 C 103.62 96.49 127.3 69.57 153.21 41.63 M 84.06 127.27 C 106.07 102.88 126.39 77.83 156.89 43.5 M 84.06 127.27 C 103.58 103.65 125.45 80.61 156.89 43.5 M 88.4 128.39 C 103.32 109.35 120.64 90.23 160.56 45.37 M 88.4 128.39 C 108.75 105.21 128.58 82.46 160.56 45.37 M 92.07 130.26 C 122.03 98.75 150.47 66.59 164.24 47.24 M 92.07 130.26 C 113.47 106.26 134.74 80.93 164.24 47.24 M 96.4 131.37 C 120.88 105.53 142.04 77.79 167.26 49.86 M 96.4 131.37 C 121.96 102.1 149.59 70.58 167.26 49.86 M 102.04 130.98 C 118.05 112.04 132.8 97.56 169.62 53.24 M 102.04 130.98 C 116.08 113.76 132.2 96.57 169.62 53.24 M 107.69 130.58 C 121.42 113.02 139.3 92.93 171.98 56.62 M 107.69 130.58 C 131.6 102.91 155.46 74.9 171.98 56.62 M 113.33 130.19 C 126.64 116.03 139.8 98.99 174.34 60 M 113.33 130.19 C 126.74 115.59 138.32 101.34 174.34 60 M 118.97 129.79 C 134.96 110.18 147.98 94.44 177.36 62.62 M 118.97 129.79 C 133.85 110.56 151.07 92.5 177.36 62.62 M 123.96 130.15 C 141.37 109.75 161.8 87.3 179.73 66 M 123.96 130.15 C 142.03 108.79 159.81 88.91 179.73 66 M 130.92 128.25 C 147.73 107.39 165.1 88.23 182.09 69.38 M 130.92 128.25 C 144.7 111.84 157.39 96.66 182.09 69.38 M 138.53 125.59 C 149.68 111.25 161.87 101.35 182.48 75.02 M 138.53 125.59 C 153.46 107.4 170.26 90.79 182.48 75.02 M 146.79 122.18 C 157.05 110.42 165.54 101.88 182.22 81.42 M 146.79 122.18 C 160.02 107.89 172.53 92.15 182.22 81.42 M 154.41 119.52 C 160.75 111.23 165.04 107.23 182.62 87.06 M 154.41 119.52 C 164.78 106.78 176.22 93.94 182.62 87.06 M 162.02 116.86 C 164.57 112.7 169.02 106.14 181.04 94.97 M 162.02 116.86 C 166.35 111.59 169.98 107.68 181.04 94.97" fill="none" stroke="#ffeb99" stroke-width="0.5" stroke-linejoin="round" stroke-linecap="round" stroke-miterlimit="10" pointer-events="all"/><path d="M 131.99 31.23 C 142.71 32.86 154.62 39.44 162.58 45.39 C 170.55 51.35 176.83 58.91 179.76 66.98 C 182.69 75.04 182.98 85.57 180.15 93.79 C 177.32 102.01 171.01 110.52 162.76 116.29 C 154.5 122.06 141.84 126.08 130.6 128.44 C 119.36 130.8 106.6 132.04 95.32 130.45 C 84.05 128.86 71.61 124.28 62.95 118.9 C 54.29 113.51 47.53 105.8 43.36 98.13 C 39.19 90.47 36.5 81.2 37.95 72.89 C 39.4 64.57 44.98 54.82 52.06 48.25 C 59.13 41.67 69.47 36.54 80.4 33.43 C 91.34 30.33 107.61 29.44 117.68 29.61 C 127.74 29.77 135.5 33.15 140.79 34.44 C 146.09 35.73 149.79 36.77 149.43 37.34 M 111.94 29 C 122.73 28.53 135.71 32.34 145.84 36.25 C 155.98 40.15 166.59 45.47 172.73 52.43 C 178.87 59.38 182.28 69.5 182.7 77.97 C 183.13 86.44 180.73 95.98 175.27 103.26 C 169.81 110.54 159.7 117.09 149.95 121.65 C 140.19 126.21 128.13 129.82 116.75 130.6 C 105.37 131.39 92.37 129.79 81.67 126.37 C 70.97 122.95 59.69 116.64 52.56 110.08 C 45.43 103.52 40.49 95 38.87 87.02 C 37.26 79.03 38.73 69.79 42.88 62.16 C 47.03 54.53 54.77 46.82 63.76 41.25 C 72.75 35.68 88.98 30.66 96.81 28.74 C 104.64 26.82 108.57 29.42 110.76 29.71 C 112.95 30.01 109.84 29.8 109.95 30.52" fill="none" stroke="#ffd966" stroke-linejoin="round" stroke-linecap="round" stroke-miterlimit="10" pointer-events="all"/></g></svg>